<svg xmlns="http://www.w3.org/2000/svg" xmlns:xlink="http://www.w3.org/1999/xlink" viewBox="0,0,256,256" width="32px" height="32px" fill-rule="nonzero"><g fill="#ffffff" fill-rule="nonzero" stroke="none" stroke-width="1" stroke-linecap="butt" stroke-linejoin="miter" stroke-miterlimit="10" stroke-dasharray="" stroke-dashoffset="0" font-family="none" font-weight="none" font-size="none" text-anchor="none" style="mix-blend-mode: normal"><g transform="scale(8,8)"><path d="M11.47852,7c-0.79,0 -1.43945,0.67023 -1.43945,1.49023c0,0.8 0.62945,1.49023 1.43945,1.49023c0.81,0 1.45117,-0.68023 1.45117,-1.49023c0,-0.84 -0.65117,-1.49023 -1.45117,-1.49023zM0.25391,7.25977c-0.09,0 -0.13086,0.04063 -0.13086,0.14063v14.38867c0,0.1 0.04086,0.15039 0.13086,0.15039h2.05078c0.1,0 0.13867,-0.05039 0.13867,-0.15039v-7.00977c0,-0.05 -0.13898,-1.39844 2.29102,-1.39844c2.43,0 2.28906,1.34844 2.28906,1.39844v6.32031c0,0.46 0.37031,0.83984 0.82031,0.83984h1.37109c0.09,0 0.12891,-0.05039 0.12891,-0.15039v-7.00977c-0.001,-1.21 -0.46039,-2.15937 -1.40039,-2.85937c-0.8,-0.6 -1.80977,-0.91992 -3.00977,-0.91992c-0.91,-0.01 -1.73023,0.19008 -2.49023,0.58008v-4.17969c0,-0.1 -0.04867,-0.14062 -0.13867,-0.14062zM18.88086,11c-1.562,0 -5.11719,1.01238 -5.11719,5.23438v9.28906c0,0.049 0.02991,0.13867 0.12891,0.13867h2.01172c0.088,0 0.13867,-0.03967 0.13867,-0.13867v-4.48828c0.805,0.638 1.75617,0.96289 2.82617,0.96289c2.976,0 5.34375,-2.455 5.34375,-5.5c0.001,-3.053 -2.36603,-5.49805 -5.33203,-5.49805zM28.60352,11c-1.305,0 -2.227,0.28539 -2.875,0.77539c-0.02,0.02 -1.39437,1.0098 -1.10937,2.7168c0.167,0.991 0.77422,1.72798 1.82422,2.20898l2.63086,1.1875c0.57,0.256 0.74661,0.66636 0.59961,1.06836c-0.187,0.461 -0.64888,0.6875 -1.79687,0.6875c-1.187,0 -2.18823,-0.45094 -2.86523,-0.96094c-0.098,-0.068 -0.21484,0.00919 -0.21484,0.11719v1.73633c0,0.53 0.24384,0.87378 0.71484,1.05078c0.766,0.275 1.55123,0.41211 2.36523,0.41211c0.628,0 1.26611,-0.0598 1.78711,-0.2168c0.029,-0.02 1.76533,-0.45045 2.23633,-2.31445c0.166,-0.687 0.1168,-1.34542 -0.1582,-1.98242c-0.333,-0.795 -0.90203,-1.36356 -1.70703,-1.72656l-2.82422,-1.27539c-0.422,-0.186 -0.45291,-0.56945 -0.12891,-0.81445c0.363,-0.285 2.16809,-0.70625 4.12109,0.34375c0.078,0.049 0.19531,-0.02114 0.19531,-0.11914v-2.26562c0,-0.069 -0.02866,-0.10891 -0.09766,-0.12891c-0.863,-0.333 -1.76526,-0.5 -2.69727,-0.5zM10.45898,11.24023c-0.08,0 -0.13086,0.08039 -0.13086,0.15039v10.39844c0,0.08 0.05086,0.15039 0.13086,0.15039h2.05078c0.09,0 0.13867,-0.05039 0.13867,-0.15039v-10.39844c0,-0.1 -0.04867,-0.15039 -0.13867,-0.15039zM18.88086,13.34766c1.689,0 3.05273,1.40434 3.05273,3.15234c0.002,1.738 -1.34373,3.15234 -3.05273,3.15234c-0.845,0 -1.57016,-0.31483 -2.16016,-0.92383c-0.599,-0.619 -0.89453,-1.35452 -0.89453,-2.22852c0,-1.748 1.35569,-3.15234 3.05469,-3.15234z"></path></g></g></svg>